<?xml version="1.0" encoding="utf-8"?>
<svg version="1.1" id="Layer_1" xmlns="http://www.w3.org/2000/svg" xmlns:xlink="http://www.w3.org/1999/xlink" x="0px" y="0px"
	 viewBox="0 0 700 333.9" style="enable-background:new 0 0 700 333.9;" xml:space="preserve">
<style type="text/css">
	.st0{fill:#A3A745;}
	.st1{fill:#EAE2B6;}
</style>
<path d="M386.2,299.2"/>
<path d="M460.4,301.4c-0.1,0-0.1,0-0.2,0"/>
<path class="st0" d="M520.3,293c6.6-6.9,12.3-15,19.9-20.2c12.2-8.4,25.2-16.2,38.8-21.9c33.6-14.1,55.3-37.6,62.9-73.6
	c9-42.6-21.9-82-63.7-81.5c-13.4,0.2-24.4,5.6-34.1,14.2c-3.1,2.7-5.9,7.9-10.6,2.4c-4.2-4.9-7.4-10.3-1.2-16.1
	c16.4-15.2,35.3-22.9,57.9-19c19.5,3.4,35.4,13.6,49.3,27.2l0.2,0.2c19.6,22.7,24.7,49.8,22.8,81.5c16.3-13.2,27.3-6.3,37.6,5.2
	c-13.2,14-19.1,14.3-38.3,1.6c-0.9,1.8-2,3.5-2.5,5.3c-8.9,32.5-30.8,53.6-59.6,69.2c-17.8,9.6-35.2,19.9-52.2,30.8
	c-12.6,8.1-21.7,19.6-26.5,35.6"/>
<path class="st0" d="M639.4,104.5c0.6-4.6,1.2-9.3,1.7-13.9c1.8-13.7,9.5-20.8,23.2-21.5c5.3-0.3,10.5-1.6,15.7-1.1
	c2.3,0.2,6.4,4.1,6.1,5.5c-1.6,7.4-3.5,15-7,21.6c-5.1,9.5-14.2,12.5-24.7,11.3c-4.9-0.6-9.9-1.1-14.8-1.6
	C639.6,104.7,639.4,104.5,639.4,104.5z"/>
<path class="st0" d="M179.8,293c-6.6-6.9-12.3-15-19.9-20.2c-12.2-8.4-25.2-16.2-38.9-21.9c-33.7-14.1-55.3-37.6-62.9-73.6
	c-9-42.6,21.9-82,63.7-81.5c13.4,0.2,24.4,5.6,34.1,14.2c3.1,2.7,5.9,7.9,10.6,2.4c4.2-4.9,7.4-10.3,1.2-16.1
	c-16.4-15.2-35.3-22.9-57.9-19c-19.5,3.4-35.4,13.6-49.3,27.2l-0.2,0.2c-19.6,22.7-24.7,49.8-22.8,81.5
	c-16.3-13.2-27.4-6.3-37.6,5.2c13.2,14,19.1,14.3,38.3,1.6c0.9,1.8,2,3.5,2.5,5.3c8.9,32.5,30.8,53.6,59.6,69.2
	c17.8,9.6,35.2,19.9,52.2,30.8c12.6,8.1,21.7,19.6,26.5,35.6"/>
<path class="st0" d="M179.8,89c0.1,0,0.2,0,0.4,0"/>
<path class="st0" d="M60.6,104.5c-0.6-4.6-1.2-9.3-1.7-13.9c-1.8-13.7-9.5-20.8-23.2-21.5C30.4,68.9,25.1,67.6,20,68
	c-2.3,0.2-6.4,4.1-6.1,5.5c1.6,7.4,3.5,15,7,21.6c5.1,9.5,14.2,12.5,24.8,11.3c4.9-0.6,9.9-1.1,14.8-1.6
	C60.4,104.7,60.6,104.5,60.6,104.5z"/>
<g>
	<g>
		<g>
			<path class="st1" d="M145.7,125.9c1.3-0.2,2,0.3,2.3,1.6l3.1,24.2c0.1,0.9-0.4,1.4-1.5,1.4l-6.2-0.1c-1.2,0.1-2-0.4-2.3-1.7
				c-3.5-9.4-10-14.1-19.3-14.3c-14.6,1.1-22.2,11.4-22.9,30.8c0.5,16.3,4.7,26.9,12.7,31.8c3.4,1.8,6.9,2.6,10.7,2.6
				c2.5,0,5.9-0.6,10.2-1.7v-17.3c0-3.9-2.5-7.7-7.6-11.2c0.5-1.5,1.6-2.2,3.2-2.2h26.6c1.6,0,2.7,0.6,3.2,1.8v0.4
				c-5.1,3.4-7.6,7.7-7.6,12.9v17.9c0,4.2-4.9,7.1-14.8,8.8c-3.2,0.6-7.3,0.9-12.2,0.9h-5c-14.4-0.5-24.5-4.9-30.4-13.1
				c-5.9-8.2-8.8-18.6-8.6-31.2c-0.1-19.4,8.6-32.4,26.1-39.2c3.7-1.5,8.9-2.2,15.8-2.2c6.9,0,13.9,1.6,21,4.9
				C144.1,130.7,145.3,128.8,145.7,125.9z"/>
			<path class="st1" d="M169.4,127.3h54.2c0.9,0,1.6,0.3,2.2,0.9l2.4,11.2v1.4c-0.3,0.9-0.8,1.3-1.6,1.4c-2-2.8-4.9-4.1-8.7-4h-26.4
				v23.8h29.9c0.9,0.3,1.3,0.9,1.3,1.8v7.1c-0.1,1.1-0.6,1.7-1.7,1.8c-17.8,0.1-27.6,0.1-29.5,0.1v0.4c0,16.1,0,24.3,0,24.6h25.3
				c6-0.4,9-1.7,9-4.1h1.3c0.7,0.3,1.1,0.9,1.2,1.8l-1.6,14.6c-0.4,0.9-1,1.3-1.9,1.3H175c-1.2-0.6-1.8-1.9-1.7-3.7v-67.2
				c0-4.4-2.5-7.8-7.4-10.4C166.5,128.2,167.7,127.3,169.4,127.3z"/>
			<path class="st1" d="M242.5,127.6h21c2.5-0.1,4.3,0.8,5.4,2.6l34.2,48.3v-34.7c0-6.8-2.6-11.4-7.9-14.1c0.4-1.5,1.4-2.2,3.1-2.2
				h23.7c0.8,0.3,1.4,0.9,1.8,1.7v0.9c-5.4,1.3-8.1,5.4-8.4,12.3v67.3c-0.1,0.9-0.7,1.4-1.8,1.8h-6.8c-3,0-5.6-1.6-7.6-4.6
				l-39.6-58.7v49.3c0,7-2.6,11.5-7.9,13.6c-2.2,0.6-3.5,0.9-4,0.9l-0.4-0.9v-67.3c0-6.8-2.6-11.4-7.9-14.1
				C239.8,128.3,240.9,127.6,242.5,127.6z M247.6,212.1c-0.3,0-0.4-0.3-0.4-0.9c0-0.5,0.1-0.7,0.4-0.7c0.4,0,0.6,0.3,0.6,0.7
				C248.3,211.8,248.1,212.1,247.6,212.1z"/>
			<path class="st1" d="M381.5,124.6h0.4c0.6,0.1,0.9,0.5,1,1.2l3.8,24.8c0,0.9-0.4,1.4-1.2,1.4h-5c-1,0.1-1.6-0.3-2-1.2
				c-4.9-8.2-11.6-12.6-20.1-13.2c-6.6,0-9.9,3-9.9,9.1c0,5.1,6.6,10.5,19.8,15.9c14,5.7,21.3,14.2,22,25.6
				c0.5,15.4-9.5,23.2-30.1,23.6c-12.8,0.1-22.6-5.4-29.5-16.7c-0.3-0.7-0.3-1.3,0-1.8l3.8-4.1c0.9-0.3,1.6,0,2.2,0.7
				c6.5,7.7,14.2,11.7,23,11.9c9.3,0,13.9-3.2,13.9-9.6c-0.4-3.7-7-9.1-20.1-16.1c-10.8-6.7-17.6-13.4-20.4-20.1
				c-1.2-2.9-1.5-6.6-1-11.2c3.2-11.8,12.5-17.5,28.1-17.3c6.1,0.3,11.3,1.6,15.8,4C378.7,130.6,380.4,128.3,381.5,124.6z"/>
			<path class="st1" d="M401.1,127.6h22.5c1.2,0.5,1.8,1.6,1.8,3.2v29.8h29.1v-31.6c0-0.4,0.4-0.9,1.3-1.4h15.5
				c1.1,0.5,1.7,1.6,1.7,3.2v58.1c-0.4,9.4-2.5,15.6-6.5,18.5s-7.7,4.3-11.1,4.3l-0.8-1.3v-38.9h-29.1l0.1,22.3
				c-0.1,8-3.4,13.2-9.8,15.7c-3.5,1.4-6.1,2.1-7.9,2.1l-1-1.3v-67.8c0-5.5-2.5-9.8-7.5-12.8v-0.4
				C399.4,128.5,400,127.9,401.1,127.6z M407.9,211.6c-0.7,0-1.1-0.3-1.1-0.9c0-0.6,0.4-0.9,1.1-0.9c0.6,0,1,0.3,1,0.9
				C408.8,211.3,408.5,211.6,407.9,211.6z M407.9,211.6c-0.7,0-1.1-0.3-1.1-0.9c0-0.6,0.4-0.9,1.1-0.9c0.6,0,1,0.3,1,0.9
				C408.8,211.3,408.5,211.6,407.9,211.6z M455.5,211.6c-0.6,0-1-0.3-1-0.9c0-0.6,0.3-0.9,1-0.9c0.7,0,1.1,0.3,1.1,0.9
				C456.6,211.3,456.2,211.6,455.5,211.6z"/>
			<path class="st1" d="M495.5,127.3h30.2c1.2,0.4,1.9,1.2,2.2,2.2v0.4c-5,3-7.5,6.6-7.5,10.9V198c0,4.2,2.5,7.9,7.5,10.9v0.4
				c-0.2,1.2-1,1.9-2.2,2.1h-30.2c-1.4-0.2-2.1-0.9-2.2-2.1v-0.4c5.1-3,7.6-6.6,7.6-10.9v-57.1c0-4.2-2.5-7.9-7.6-10.9v-0.4
				C493.5,128.5,494.3,127.8,495.5,127.3z"/>
			<path class="st1" d="M538.1,127.6h21c2.5-0.1,4.3,0.8,5.4,2.6l34.2,48.3v-34.7c0-6.8-2.6-11.4-7.9-14.1c0.4-1.5,1.4-2.2,3.1-2.2
				h23.7c0.8,0.3,1.4,0.9,1.8,1.7v0.9c-5.3,1.3-8.1,5.4-8.3,12.3v67.3c-0.1,0.9-0.7,1.4-1.8,1.8h-6.8c-3,0-5.6-1.6-7.6-4.6
				l-39.6-58.7v49.3c0,7-2.6,11.5-7.9,13.6c-2.2,0.6-3.5,0.9-4,0.9l-0.4-0.9v-67.3c0-6.8-2.6-11.4-7.9-14.1
				C535.4,128.3,536.5,127.6,538.1,127.6z M543.3,212.1c-0.3,0-0.4-0.3-0.4-0.9c0-0.5,0.1-0.7,0.4-0.7c0.4,0,0.6,0.3,0.6,0.7
				C543.9,211.8,543.7,212.1,543.3,212.1z"/>
		</g>
	</g>
	<g>
		<g>
			<path class="st1" d="M187.7,220.4h20.1c16,0,24,5.9,24,17.7c0,9-4.7,14.7-14.1,17c-3.9,0.7-8.6,0.9-14.4,0.6v10.7
				c0,5.7-3.9,9.7-11.5,12c-0.8,0-1.1-0.4-1-1.1v-47c0-3.6-1.7-6.3-5.1-8.1v-0.6C186,220.8,186.7,220.4,187.7,220.4z M203.3,227.2
				v21.6h5.7c7,0,10.5-3.6,10.5-10.8c0-7.2-3.6-10.8-10.8-10.8H203.3z"/>
			<path class="st1" d="M253.6,220.9h13.9c1.1,0,1.6,0.5,1.6,1.6v46.3c0,1.1,0.5,1.6,1.5,1.6h23.6c0.6,0,0.9,0.4,0.9,1
				c-0.3,1.4-1.4,2.7-3,4c-1.7,1.3-4.3,2-7.9,2h-24.5c-2.1,0-3.1-1-3.1-2.9v-43.7c0-3.6-1.7-6.4-5-8.4v-0.4
				C251.8,221.3,252.5,220.9,253.6,220.9z"/>
			<path class="st1" d="M335.3,220.4h7.5c1.4-0.1,2.2,0.5,2.6,1.7c12.4,36,18.6,54.3,18.6,54.8c0,0.4-0.2,0.6-0.6,0.6h-3.1
				c-5.8,0-10.1-3.5-12.9-10.5c-1-2.7-1.6-4.2-1.7-4.5H327c-0.1,0.2-1.5,4.5-4.1,12.6c-0.3,0.6-1,1.1-2,1.6
				c-1.7,0.7-3.7,0.9-5.9,0.7c-0.4,0-0.6-0.2-0.6-0.6c1.5-5.5,7.6-23.8,18.2-54.8C333.1,221,334,220.4,335.3,220.4z M336.7,233.1
				l-7.4,22.5h14.5v-0.3l-6.8-22.2H336.7z"/>
			<path class="st1" d="M426.7,219.7c0.5-0.1,0.8,0.1,1,0.6l2.7,16c0.1,1-0.3,1.5-1.2,1.5H429l-2.8-0.1c-0.7-0.1-1.1-0.4-1.2-1
				c-3.6-6.1-8.4-9.4-14.4-9.7c-6.2,0-10.6,3.2-13.2,9.6c-1.4,3.9-2.1,8.1-2.1,12.3c0,12.6,4,19.9,12,21.9c0.8,0.2,1.6,0.3,2.4,0.3
				h2.7c4.8,0,9.9-2.4,15.3-7.3c0.6-0.4,1.1-0.4,1.5,0l2.4,2c0.4,0.3,0.6,0.7,0.5,1.2c-2.1,3.6-5.3,6.5-9.6,8.8
				c-3.9,1.7-8.1,2.5-12.6,2.5c-15.5-0.1-24.7-7.6-27.6-22.4c-0.4-2-0.6-4.9-0.6-8.5c0-11.8,5.4-20.2,16.2-25.2
				c3.3-1.4,7.3-2.1,12-2.1c4.3,0,9.1,1.1,14.4,3.3C425.7,222.8,426.5,221.5,426.7,219.7z"/>
			<path class="st1" d="M453.6,220.1h37c0.6,0,1.1,0.2,1.5,0.6l1.7,7.6v0.9c-0.2,0.6-0.5,0.9-1.1,0.9c-1.4-1.9-3.3-2.8-5.9-2.7h-18
				v16.2h20.4c0.6,0.2,0.9,0.6,0.9,1.2v4.8c0,0.7-0.4,1.1-1.2,1.2c-12.1,0-18.8,0.1-20.1,0.1v0.3c0,11,0,16.6,0,16.8H486
				c4.1-0.2,6.1-1.2,6.1-2.8h0.9c0.5,0.2,0.8,0.6,0.8,1.2l-1.1,10c-0.2,0.6-0.7,0.9-1.3,0.9h-34c-0.8-0.4-1.2-1.3-1.1-2.5V229
				c0-3-1.7-5.3-5-7.1C451.6,220.7,452.4,220.1,453.6,220.1z"/>
		</g>
	</g>
</g>
<g>
	<path class="st0" d="M348.9,0.2c0-0.1,0.1-0.2,0.1-0.2c9.1,15.6,17.5,29,24.8,42.8c4.7,8.9,1.9,18-3.5,25.8
		c-5.4,7.7-11.5,14.8-17.9,21.6c-0.6,0.7-2.3,0.9-4,0.8"/>
	<path class="st0" d="M349.7,0.2c0-0.1-0.1-0.2-0.1-0.2c-9.1,15.6-17.5,29-24.8,42.8c-4.7,8.9-1.9,18,3.5,25.8
		c5.4,7.7,11.5,14.8,17.9,21.6c0.6,0.7,2.3,0.9,4,0.8"/>
</g>
<g>
	<path class="st0" d="M447.6,49.5c0,0,0.1-0.1,0.1-0.1c3.3,10.5,6.5,19.6,8.9,28.8c1.6,5.9-1.3,11-5.6,14.8
		c-4.2,3.8-8.9,7.2-13.6,10.4c-0.5,0.3-1.5,0.2-2.5-0.1"/>
	<g>
		<path class="st0" d="M448,49.6c0,0,0-0.1,0-0.2c-7.5,8.1-14.3,14.9-20.5,22.1c-4,4.7-3.6,10.5-1.4,15.8c2.1,5.3,4.9,10.4,7.7,15.3
			c0.3,0.5,1.3,0.9,2.3,1"/>
	</g>
</g>
<g>
	<path class="st0" d="M253,49.5c0,0,0-0.1,0.1-0.2c7.4,8.2,14,15.1,20.1,22.5c3.9,4.7,3.4,10.5,1.1,15.8c-2.2,5.2-5,10.3-8,15.2
		c-0.3,0.5-1.3,0.8-2.3,1"/>
	<path class="st0" d="M253.4,49.4c0,0-0.1-0.1-0.1-0.1c-3.5,10.5-6.8,19.5-9.4,28.7c-1.7,5.9,1.1,11,5.3,14.9
		c4.1,3.9,8.7,7.4,13.4,10.7c0.5,0.3,1.5,0.3,2.5,0"/>
</g>
</svg>
